<?xml version="1.0" encoding="UTF-8" standalone="no"?>
<!-- Generator: Adobe Illustrator 19.0.0, SVG Export Plug-In . SVG Version: 6.00 Build 0)  -->

<svg
   xmlns:dc="http://purl.org/dc/elements/1.1/"
   xmlns:cc="http://creativecommons.org/ns#"
   xmlns:rdf="http://www.w3.org/1999/02/22-rdf-syntax-ns#"
   xmlns:svg="http://www.w3.org/2000/svg"
   xmlns="http://www.w3.org/2000/svg"
   xmlns:sodipodi="http://sodipodi.sourceforge.net/DTD/sodipodi-0.dtd"
   xmlns:inkscape="http://www.inkscape.org/namespaces/inkscape"
   version="1.1"
   id="Capa_1"
   x="0px"
   y="0px"
   viewBox="0 0 100 100"
   xml:space="preserve"
   sodipodi:docname="analysis.svg"
   width="100"
   height="100"
   inkscape:version="0.92.3 (2405546, 2018-03-11)"><metadata
   id="metadata79"><rdf:RDF><cc:Work
       rdf:about=""><dc:format>image/svg+xml</dc:format><dc:type
         rdf:resource="http://purl.org/dc/dcmitype/StillImage" /><dc:title></dc:title></cc:Work></rdf:RDF></metadata><defs
   id="defs77" /><sodipodi:namedview
   pagecolor="#ffffff"
   bordercolor="#666666"
   borderopacity="1"
   objecttolerance="10"
   gridtolerance="10"
   guidetolerance="10"
   inkscape:pageopacity="0"
   inkscape:pageshadow="2"
   inkscape:window-width="767"
   inkscape:window-height="868"
   id="namedview75"
   showgrid="false"
   inkscape:zoom="1.050338"
   inkscape:cx="139.92277"
   inkscape:cy="256"
   inkscape:window-x="55"
   inkscape:window-y="0"
   inkscape:window-maximized="0"
   inkscape:current-layer="Capa_1" />
<path
   style="fill:#235087;stroke-width:0.17672572"
   d="m 79.539821,70.858645 13.42991,13.42992 c 1.22082,1.22082 1.90634,2.8755 1.90634,4.60088 v 0 c 0.001,3.59318 -2.91085,6.50562 -6.50404,6.50721 -0.001,0 -0.001,0 -0.003,0 v 0 c -1.72538,0 -3.38006,-0.68552 -4.60088,-1.90634 l -13.42965,-13.42991 z"
   id="path2"
   inkscape:connector-curvature="0" />
<rect
   x="-6.1421385"
   y="-106.34594"
   transform="rotate(135)"
   style="fill:#ef2648;stroke-width:0.17672403"
   width="13.012543"
   height="10.842549"
   id="rect4" />
<path
   style="fill:#163768;stroke-width:0.17672572"
   d="m 77.239371,73.925715 c 1.92631,0.003 3.84945,0.13343 5.7572,0.38951 l -3.45675,-3.45676 -3.08723,3.08722 c 0.26244,-0.005 0.52311,-0.02 0.78678,-0.02 z"
   id="path6"
   inkscape:connector-curvature="0" />
<path
   style="fill:#b20d24;stroke-width:0.17672572"
   d="m 79.539821,70.858645 -7.66814,-7.668129 -9.201748,9.201759 3.067248,3.06725 c 3.49352,-0.94619 7.09147,-1.45693 10.71082,-1.51825 z"
   id="path8"
   inkscape:connector-curvature="0" />
<circle
   style="fill:#b7e5ff;stroke-width:0.17672572"
   cx="42.732983"
   cy="43.25338"
   r="30.672338"
   id="circle10" />
<g
   id="g22"
   transform="matrix(0.17672571,0,0,0.17672571,5.9261356,5.6797256)">
	
		<rect
   x="147.522"
   y="193.14101"
   transform="matrix(-0.7071,0.7071,-0.7071,-0.7071,429.2543,282.1118)"
   style="fill:#ef2648"
   width="17.356001"
   height="73.632004"
   id="rect12" />
	
		<rect
   x="202.57001"
   y="212.612"
   transform="matrix(-0.7071,0.7071,-0.7071,-0.7071,586.0867,199.8138)"
   style="fill:#ef2648"
   width="98.181999"
   height="17.356001"
   id="rect14" />
	<rect
   x="451.254"
   y="39.050999"
   style="fill:#ef2648"
   width="60.745998"
   height="17.356001"
   id="rect16" />
	<rect
   x="34.712002"
   y="177.89799"
   style="fill:#ef2648"
   width="52.068001"
   height="17.356001"
   id="rect18" />
	
		<rect
   x="365.953"
   y="73.779999"
   transform="matrix(-0.7071,0.7071,-0.7071,-0.7071,724.9299,-135.3595)"
   style="fill:#ef2648"
   width="49.091"
   height="17.356001"
   id="rect20" />
</g>
<g
   id="g30"
   transform="matrix(0.17672571,0,0,0.17672571,5.9261356,5.6797256)">
	<path
   style="fill:#235087"
   d="m 112.814,221.288 c -19.17,0 -34.712,-15.542 -34.712,-34.712 0,-19.17 15.542,-34.712 34.712,-34.712 19.17,0 34.712,15.542 34.712,34.712 0,19.17 -15.543,34.712 -34.712,34.712 z m 0,-52.068 c -9.589,0 -17.356,7.767 -17.356,17.356 0,9.589 7.767,17.356 17.356,17.356 9.589,0 17.356,-7.767 17.356,-17.356 -10e-4,-9.589 -7.767,-17.356 -17.356,-17.356 z"
   id="path24"
   inkscape:connector-curvature="0" />
	<path
   style="fill:#235087"
   d="m 199.593,308.068 c -19.17,0 -34.712,-15.542 -34.712,-34.712 0,-19.17 15.542,-34.712 34.712,-34.712 19.17,0 34.712,15.542 34.712,34.712 0,19.17 -15.542,34.712 -34.712,34.712 z m 0,-52.068 c -9.589,0 -17.356,7.767 -17.356,17.356 0,9.589 7.767,17.356 17.356,17.356 9.589,0 17.356,-7.767 17.356,-17.356 0,-9.589 -7.767,-17.356 -17.356,-17.356 z"
   id="path26"
   inkscape:connector-curvature="0" />
	<path
   style="fill:#235087"
   d="m 425.22,82.441 c -19.17,0 -34.712,-15.542 -34.712,-34.712 0,-19.17 15.542,-34.712 34.712,-34.712 19.17,0 34.712,15.542 34.712,34.712 0,19.17 -15.542,34.712 -34.712,34.712 z m 0,-52.068 c -9.589,0 -17.356,7.767 -17.356,17.356 0,9.589 7.767,17.356 17.356,17.356 9.589,0 17.356,-7.767 17.356,-17.356 0,-9.589 -7.767,-17.356 -17.356,-17.356 z"
   id="path28"
   inkscape:connector-curvature="0" />
</g>
<path
   style="fill:#99c8e0;stroke-width:0.17672572"
   d="M 54.502022,14.929021 C 67.602168,25.668995 69.514691,44.99572 58.77313,58.095867 50.19875,68.553615 35.785711,72.162175 23.295975,66.977041 36.396121,77.717015 55.721257,75.804495 66.462822,62.705934 77.204391,49.607377 75.290271,30.280653 62.191715,19.539087 59.86812,17.634338 57.276262,16.080742 54.502022,14.929021 Z"
   id="path32"
   inkscape:connector-curvature="0" />
<rect
   x="-29.990925"
   y="-68.845383"
   transform="rotate(135)"
   style="fill:#ef2648;stroke-width:0.17672403"
   width="8.675559"
   height="3.0672224"
   id="rect34" />
<path
   style="fill:#b20d24;stroke-width:0.17672572"
   d="m 67.637517,25.38217 -3.499703,3.499699 c 0.372718,1.117967 0.679338,2.255904 0.920214,3.409216 l 4.281883,-4.281888 c -0.52311,-0.904836 -1.090569,-1.780511 -1.702394,-2.627027 z"
   id="path36"
   inkscape:connector-curvature="0" />
<g
   id="g42"
   transform="matrix(0.17672571,0,0,0.17672571,5.9261356,5.6797256)">
	<path
   style="fill:#235087"
   d="M 208.271,4.339 C 93.245,4.339 0,97.584 0,212.61 0,327.636 93.245,420.881 208.271,420.881 323.297,420.881 416.542,327.636 416.542,212.61 416.542,97.584 323.298,4.339 208.271,4.339 Z m 0,381.83 c -95.857,0 -173.559,-77.703 -173.559,-173.559 0,-95.856 77.702,-173.559 173.559,-173.559 95.857,0 173.559,77.703 173.559,173.559 0,95.856 -77.702,173.559 -173.559,173.559 z"
   id="path38"
   inkscape:connector-curvature="0" />
	<path
   style="fill:#235087"
   d="m 303.729,203.932 c -19.17,0 -34.712,-15.542 -34.712,-34.712 0,-19.17 15.542,-34.712 34.712,-34.712 19.17,0 34.712,15.542 34.712,34.712 0,19.17 -15.543,34.712 -34.712,34.712 z m 0,-52.068 c -9.589,0 -17.356,7.767 -17.356,17.356 0,9.589 7.767,17.356 17.356,17.356 9.589,0 17.356,-7.767 17.356,-17.356 0,-9.589 -7.767,-17.356 -17.356,-17.356 z"
   id="path40"
   inkscape:connector-curvature="0" />
</g>
<g
   id="g44"
   transform="matrix(0.17672571,0,0,0.17672571,5.9261356,5.6797256)">
</g>
<g
   id="g46"
   transform="matrix(0.17672571,0,0,0.17672571,5.9261356,5.6797256)">
</g>
<g
   id="g48"
   transform="matrix(0.17672571,0,0,0.17672571,5.9261356,5.6797256)">
</g>
<g
   id="g50"
   transform="matrix(0.17672571,0,0,0.17672571,5.9261356,5.6797256)">
</g>
<g
   id="g52"
   transform="matrix(0.17672571,0,0,0.17672571,5.9261356,5.6797256)">
</g>
<g
   id="g54"
   transform="matrix(0.17672571,0,0,0.17672571,5.9261356,5.6797256)">
</g>
<g
   id="g56"
   transform="matrix(0.17672571,0,0,0.17672571,5.9261356,5.6797256)">
</g>
<g
   id="g58"
   transform="matrix(0.17672571,0,0,0.17672571,5.9261356,5.6797256)">
</g>
<g
   id="g60"
   transform="matrix(0.17672571,0,0,0.17672571,5.9261356,5.6797256)">
</g>
<g
   id="g62"
   transform="matrix(0.17672571,0,0,0.17672571,5.9261356,5.6797256)">
</g>
<g
   id="g64"
   transform="matrix(0.17672571,0,0,0.17672571,5.9261356,5.6797256)">
</g>
<g
   id="g66"
   transform="matrix(0.17672571,0,0,0.17672571,5.9261356,5.6797256)">
</g>
<g
   id="g68"
   transform="matrix(0.17672571,0,0,0.17672571,5.9261356,5.6797256)">
</g>
<g
   id="g70"
   transform="matrix(0.17672571,0,0,0.17672571,5.9261356,5.6797256)">
</g>
<g
   id="g72"
   transform="matrix(0.17672571,0,0,0.17672571,5.9261356,5.6797256)">
</g>
</svg>